HIERARCHY
ROOT Pelvis
{
	OFFSET 0.000000 0.000000 0.000000
	CHANNELS 6 Xposition Yposition Zposition Xrotation Yrotation Zrotation
	JOINT LeftUpLeg_virtual
	{
		OFFSET 0.000000 0.000000 0.000000
		CHANNELS 3 Xrotation Yrotation Zrotation
		JOINT LeftUpLeg
		{
			OFFSET 18.735201 -5.666702 -4.541200
			CHANNELS 3 Xrotation Yrotation Zrotation
			JOINT LeftLeg
			{
				OFFSET -0.021200 -31.938179 0.493100
				CHANNELS 3 Xrotation Yrotation Zrotation
				JOINT LeftFoot
				{
					OFFSET 0.021200 -31.938179 -4.336299
					CHANNELS 3 Xrotation Yrotation Zrotation
					JOINT LeftToeBase
					{
						OFFSET 0.943001 -26.722000 15.023500
						CHANNELS 3 Xrotation Yrotation Zrotation
						End Site
						{
							OFFSET 0 0 0
						}
					}
				}
			}
		}
	}
	JOINT RightUpLeg_virtual
	{
		OFFSET 0.000000 0.000000 0.000000
		CHANNELS 3 Xrotation Yrotation Zrotation
		JOINT RightUpLeg
		{
			OFFSET -18.735201 -5.666702 -4.541200
			CHANNELS 3 Xrotation Yrotation Zrotation
			JOINT RightLeg
			{
				OFFSET 0.018946 -31.938133 0.493100
				CHANNELS 3 Xrotation Yrotation Zrotation
				JOINT RightFoot
				{
					OFFSET -0.018946 -31.938126 -4.336299
					CHANNELS 3 Xrotation Yrotation Zrotation
					JOINT RightToeBase
					{
						OFFSET -0.943001 -26.722004 15.023500
						CHANNELS 3 Xrotation Yrotation Zrotation
						End Site
						{
							OFFSET 0 0 0
						}
					}
				}
			}
		}
	}
	JOINT Hips_virtual
	{
		OFFSET 0.000000 0.000000 0.000000
		CHANNELS 3 Xrotation Yrotation Zrotation
		JOINT Hips
		{
			OFFSET -0.000000 -0.000000 -0.000000
			CHANNELS 3 Xrotation Yrotation Zrotation
			JOINT Spine
			{
				OFFSET 0.000000 10.199997 -0.299500
				CHANNELS 3 Xrotation Yrotation Zrotation
				JOINT Spine1
				{
					OFFSET 0.000000 11.900002 -1.516600
					CHANNELS 3 Xrotation Yrotation Zrotation
					JOINT Spine2
					{
						OFFSET 0.000000 13.600006 -2.842500
						CHANNELS 3 Xrotation Yrotation Zrotation
						JOINT Neck_virtual
						{
							OFFSET 0.000000 0.000000 0.000000
							CHANNELS 3 Xrotation Yrotation Zrotation
							JOINT Neck
							{
								OFFSET 0.000000 9.624100 -2.890100
								CHANNELS 3 Xrotation Yrotation Zrotation
								JOINT Head
								{
									OFFSET 0.000000 14.068802 -1.351900
									CHANNELS 3 Xrotation Yrotation Zrotation
									End Site
									{
										OFFSET 0 0 0
									}
								}
							}
						}
						JOINT LeftShoulder_virtual
						{
							OFFSET 0.000000 0.000000 0.000000
							CHANNELS 3 Xrotation Yrotation Zrotation
							JOINT LeftShoulder
							{
								OFFSET 15.263000 10.923401 -0.547700
								CHANNELS 3 Xrotation Yrotation Zrotation
								JOINT LeftArm
								{
									OFFSET 25.438599 -2.830597 -13.032500
									CHANNELS 3 Xrotation Yrotation Zrotation
									JOINT LeftForeArm
									{
										OFFSET 29.960503 0.000000 0.000000
										CHANNELS 3 Xrotation Yrotation Zrotation
										JOINT LeftHand
										{
											OFFSET 27.849251 0.000000 0.000000
											CHANNELS 3 Xrotation Yrotation Zrotation
											End Site
											{
												OFFSET 0 0 0
											}
										}
									}
								}
							}
						}
						JOINT RightShoulder_virtual
						{
							OFFSET 0.000000 0.000000 0.000000
							CHANNELS 3 Xrotation Yrotation Zrotation
							JOINT RightShoulder
							{
								OFFSET -15.263000 10.923401 -0.547700
								CHANNELS 3 Xrotation Yrotation Zrotation
								JOINT RightArm
								{
									OFFSET -25.438599 -2.830597 -13.032500
									CHANNELS 3 Xrotation Yrotation Zrotation
									JOINT RightForeArm
									{
										OFFSET -29.960503 0.000000 0.000000
										CHANNELS 3 Xrotation Yrotation Zrotation
										JOINT RightHand
										{
											OFFSET -27.849251 0.000000 0.000000
											CHANNELS 3 Xrotation Yrotation Zrotation
											End Site
											{
												OFFSET 0 0 0
											}
										}
									}
								}
							}
						}
					}
				}
			}
		}
	}
}
MOTION
Frames: 14
Frame Time: 0.03333333
0.761778 95.252869 4.342113 0.000000 0.000000 0.000000 -4.056679 6.146934 -1.685399 -6.314141 9.856433 12.844458 17.339822 -7.009183 0.228881 -8.259189 1.149147 -8.070095 0.000000 0.000000 0.000000 -4.056679 6.146934 -1.685399 -3.371375 -5.897517 0.966168 12.485369 3.400913 -0.638162 -4.917840 0.005346 0.732136 0.000000 0.000000 0.000000 -4.056679 6.146934 -1.685399 0.000000 0.000000 0.000000 4.902942 -0.340363 1.141115 5.814412 -0.121263 1.891506 0.000000 0.000000 0.000000 -4.300225 -0.608023 -1.115061 0.268313 -0.226332 0.191237 0.000000 0.000000 0.000000 -4.300225 -0.608023 -1.115061 1.687484 -7.781253 -3.494999 -0.672287 -2.004150 -76.954150 6.346023 -10.905152 1.751687 0.000000 0.000000 0.000000 -4.300225 -0.608023 -1.115061 2.069734 10.207993 4.096301 1.439769 3.704601 75.273917 15.720240 15.338361 -4.555483 0.000000 0.000000 0.000000 
1.025891 95.244011 4.483181 0.000000 0.000000 0.000000 -3.998714 5.921756 -1.681329 -6.143274 9.885278 12.566849 17.495316 -6.809852 0.256150 -8.581194 1.228825 -7.876195 0.000000 0.000000 0.000000 -3.998714 5.921756 -1.681329 -3.392238 -5.939930 0.724015 12.545484 3.557930 -0.656508 -5.028545 0.055180 0.942841 0.000000 0.000000 0.000000 -3.998714 5.921756 -1.681329 0.000000 0.000000 0.000000 4.952760 -0.305433 1.030119 5.780767 -0.096299 1.938783 0.000000 0.000000 0.000000 -4.313797 -0.587796 -1.059323 0.281626 -0.230330 0.176101 0.000000 0.000000 0.000000 -4.313797 -0.587796 -1.059323 1.725177 -7.668270 -3.419643 -0.663468 -1.883002 -77.088971 6.401421 -10.863919 1.697805 0.000000 0.000000 0.000000 -4.313797 -0.587796 -1.059323 2.143770 10.163301 3.767667 1.868293 4.550494 75.382045 15.821525 16.571746 -5.763650 0.000000 0.000000 0.000000 
1.349355 95.223045 4.643353 0.000000 0.000000 0.000000 -3.830745 5.734113 -1.715477 -6.137671 9.809104 12.250365 17.800706 -6.533195 0.320434 -8.985050 1.295032 -7.660330 0.000000 0.000000 0.000000 -3.830745 5.734113 -1.715477 -3.450121 -6.004380 0.453119 12.512937 3.719250 -0.654508 -5.119836 0.049946 1.197165 0.000000 0.000000 0.000000 -3.830745 5.734113 -1.715477 0.000000 0.000000 0.000000 4.883720 -0.282410 1.015397 5.773496 -0.086207 1.957465 0.000000 0.000000 0.000000 -4.264753 -0.578404 -1.023406 0.246843 -0.229259 0.153832 0.000000 0.000000 0.000000 -4.264753 -0.578404 -1.023406 1.728873 -7.543038 -3.464690 -0.761511 -1.733393 -77.093131 6.407568 -10.788648 1.590152 0.000000 0.000000 0.000000 -4.264753 -0.578404 -1.023406 2.218204 10.107014 3.436441 1.946284 5.291989 75.488869 15.732354 17.509204 -6.845783 0.000000 0.000000 0.000000 
1.729690 95.207253 4.870087 0.000000 0.000000 0.000000 -3.783613 5.494796 -1.721803 -5.897436 9.850775 11.887306 18.055943 -6.309402 0.358612 -9.462791 1.374636 -7.382363 0.000000 0.000000 0.000000 -3.783613 5.494796 -1.721803 -3.358376 -6.161272 0.097700 12.519633 4.053763 -0.645178 -5.286164 0.032052 1.479895 0.000000 0.000000 0.000000 -3.783613 5.494796 -1.721803 -0.000001 0.000000 0.000000 4.986068 -0.227036 0.986342 5.711834 -0.047053 1.952791 0.000000 0.000000 0.000000 -4.235807 -0.535215 -0.996138 0.203266 -0.235421 0.143951 0.000000 0.000000 0.000000 -4.235807 -0.535215 -0.996138 1.742162 -7.460042 -3.430646 -0.839378 -1.700786 -77.166002 6.401226 -10.777364 1.487723 0.000000 0.000000 0.000000 -4.235807 -0.535215 -0.996138 2.290862 10.072033 3.144958 1.878465 5.832931 75.612298 15.375207 18.311846 -7.894923 0.000000 0.000000 0.000000 
2.168586 95.178543 5.114941 0.000000 0.000000 0.000000 -3.652737 5.234686 -1.750895 -5.750011 9.842847 11.470816 18.405833 -6.003087 0.421634 -10.014674 1.447881 -7.077043 0.000000 0.000000 0.000000 -3.652737 5.234686 -1.750895 -3.339644 -6.272733 -0.275382 12.499019 4.360683 -0.674029 -5.441324 0.030247 1.842079 0.000000 0.000000 0.000000 -3.652737 5.234686 -1.750895 0.000000 0.000000 0.000000 5.052145 -0.150532 0.995061 5.633236 0.009386 1.926302 0.000000 0.000000 0.000000 -4.191522 -0.472121 -0.979343 0.152839 -0.248338 0.151305 0.000000 0.000000 0.000000 -4.191522 -0.472121 -0.979343 1.752072 -7.376013 -3.322551 -0.864218 -1.910948 -77.278898 6.562484 -10.838901 1.399560 0.000000 0.000000 0.000000 -4.191522 -0.472121 -0.979343 2.305062 10.038481 2.891109 1.582876 6.226908 75.707593 15.268324 18.776117 -8.923786 0.000000 0.000000 0.000000 
2.668492 95.142067 5.392128 0.000000 0.000000 0.000000 -3.558966 5.009901 -1.773697 -5.557113 9.783162 10.987887 18.819488 -5.655583 0.502539 -10.633432 1.509077 -6.738810 0.000000 0.000000 0.000000 -3.558966 5.009901 -1.773697 -3.264203 -6.351487 -0.678028 12.498509 4.693945 -0.764796 -5.643502 0.004525 2.294778 0.000000 0.000000 0.000000 -3.558966 5.009901 -1.773697 0.000000 0.000000 0.000000 5.206147 -0.079068 0.924952 5.535952 0.046859 1.999414 0.000000 0.000000 0.000000 -4.132953 -0.436020 -0.855768 0.095396 -0.247177 0.129968 0.000000 0.000000 0.000000 -4.132953 -0.436020 -0.855768 1.738646 -7.243280 -3.378913 -0.855129 -2.297728 -77.312632 6.397109 -10.898882 1.211030 0.000000 0.000000 0.000000 -4.132953 -0.436020 -0.855768 2.383216 10.062540 2.494449 1.414111 6.378808 75.858506 15.152985 19.575375 -9.979648 0.000000 0.000000 0.000000 
3.246241 95.087044 5.695808 0.000000 0.000000 0.000000 -3.369757 4.856736 -1.827633 -5.534604 9.661009 10.474543 19.388668 -5.327097 0.582464 -11.338789 1.568326 -6.330984 0.000000 0.000000 0.000000 -3.369757 4.856736 -1.827633 -3.197659 -6.386531 -1.108327 12.412896 4.820158 -0.849415 -5.849651 0.024298 2.831147 0.000000 0.000000 0.000000 -3.369757 4.856736 -1.827633 0.000000 0.000000 0.000000 5.297373 -0.046552 0.884371 5.427743 0.057518 2.063191 0.000000 0.000000 0.000000 -4.056098 -0.424844 -0.735531 0.044172 -0.245897 0.133264 0.000000 0.000000 0.000000 -4.056098 -0.424844 -0.735531 1.727075 -6.921210 -3.586655 -1.064905 -2.834422 -77.223355 6.450598 -10.874519 0.977341 0.000000 0.000000 0.000000 -4.056098 -0.424844 -0.735531 2.412059 10.059714 2.221549 1.108798 6.494101 76.018236 14.883711 20.248610 -10.972456 0.000000 0.000000 0.000000 
3.889088 95.044861 6.053501 0.000000 0.000000 0.000000 -3.435572 4.771988 -1.801047 -5.113758 9.569345 9.848188 19.798273 -5.043670 0.634794 -12.030740 1.608428 -5.860106 0.000000 0.000000 0.000000 -3.435572 4.771988 -1.801047 -2.836545 -6.362433 -1.578859 12.398648 4.947614 -1.104082 -6.176154 0.013378 3.522587 0.000000 0.000000 0.000000 -3.435572 4.771988 -1.801047 0.000000 0.000000 0.000000 5.813504 -0.048576 0.762308 5.177081 0.042144 2.140997 0.000000 0.000000 0.000000 -4.093566 -0.436375 -0.593213 0.043484 -0.244075 0.142614 0.000000 0.000000 0.000000 -4.093566 -0.436375 -0.593213 1.715671 -6.673939 -3.679051 -1.301784 -3.207732 -77.253094 6.468747 -10.818629 0.708019 0.000000 0.000000 0.000000 -4.093566 -0.436375 -0.593213 2.438394 10.060430 1.935064 0.854341 6.485973 76.165543 14.292010 20.732682 -11.504228 0.000000 0.000000 0.000000 
4.596385 94.997566 6.407047 0.000000 0.000000 0.000000 -3.440543 4.683100 -1.806073 -4.775920 9.493584 9.195774 20.243707 -4.765934 0.683772 -12.745726 1.638130 -5.329468 0.000000 0.000000 0.000000 -3.440543 4.683100 -1.806073 -2.423512 -6.167189 -2.021753 12.169929 4.646697 -1.422167 -6.398601 0.171339 4.361772 0.000000 0.000000 0.000000 -3.440543 4.683100 -1.806073 0.000000 0.000000 0.000000 6.359814 -0.060029 0.810124 4.870004 0.031192 2.101834 0.000000 0.000000 0.000000 -4.164538 -0.432187 -0.559132 0.063537 -0.259546 0.194085 0.000000 0.000000 0.000000 -4.164538 -0.432187 -0.559132 1.719824 -6.509165 -3.512831 -1.824463 -3.324430 -77.496173 7.246896 -10.671276 0.485910 0.000000 0.000000 0.000000 -4.164538 -0.432187 -0.559132 2.436077 9.896437 1.877623 0.660131 6.480348 76.116250 13.487540 21.169364 -11.652141 0.000000 0.000000 0.000000 
5.324569 94.952972 6.780579 0.000000 0.000000 0.000000 -3.463959 4.463715 -1.750988 -4.218168 9.591137 8.446559 20.407128 -4.516258 0.706192 -13.382095 1.678035 -4.761762 0.000000 0.000000 0.000000 -3.463959 4.463715 -1.750988 -2.315311 -5.678094 -3.112851 12.370144 4.392804 -0.638305 -6.656232 0.299299 4.663642 0.000000 0.000000 0.000000 -3.463959 4.463715 -1.750988 0.000000 0.000000 0.000000 6.998664 -0.064433 0.543298 4.558581 0.031961 2.236083 0.000000 0.000000 0.000000 -4.213223 -0.431091 -0.343677 0.041336 -0.252528 0.216403 0.000000 0.000000 0.000000 -4.213223 -0.431091 -0.343677 1.702609 -6.270190 -3.585781 -2.493387 -3.497633 -77.654203 8.123790 -10.485688 0.259544 0.000000 0.000000 0.000000 -4.213223 -0.431091 -0.343677 2.444137 9.805072 1.710060 0.544490 6.355684 76.042156 12.671823 21.561300 -11.703930 0.000000 0.000000 0.000000 
6.031168 94.923317 7.174992 0.000000 0.000000 0.000000 -3.691011 4.235697 -1.598772 -3.273080 9.892002 7.657457 20.241944 -4.444370 0.667479 -13.888105 1.698485 -4.160328 0.000000 0.000000 0.000000 -3.691011 4.235697 -1.598772 -3.300827 -4.748218 -4.792486 14.677016 3.636741 1.075561 -6.941715 0.599239 4.477659 0.000000 0.000000 0.000000 -3.691011 4.235697 -1.598772 0.000000 0.000000 0.000000 7.984835 -0.116182 0.070903 4.188926 0.005791 2.390395 0.000000 0.000000 0.000000 -4.297098 -0.452976 -0.101838 0.020491 -0.239950 0.274020 0.000000 0.000000 0.000000 -4.297098 -0.452976 -0.101838 1.696629 -6.093185 -3.450954 -2.848744 -4.062597 -77.796872 8.302768 -10.407082 -0.102480 0.000000 0.000000 0.000000 -4.297098 -0.452976 -0.101838 2.451008 9.626297 1.643279 0.462975 6.291464 75.939519 11.927892 21.851734 -11.662602 0.000000 0.000000 0.000000 
6.705230 94.866028 7.615486 0.000000 0.000000 0.000000 -4.039542 4.147005 -1.588496 -2.489787 10.232131 7.175565 20.563188 -4.645399 0.589894 -14.649794 1.728888 -3.532093 0.000000 0.000000 0.000000 -4.039542 4.147005 -1.588496 -7.255975 -4.078726 -5.864254 21.599479 2.948102 1.044800 -6.321352 0.877745 5.793094 0.000000 0.000000 0.000000 -4.039542 4.147005 -1.588496 0.000000 0.000000 0.000000 9.160609 -0.233486 -0.249117 3.833141 -0.114223 2.594190 0.000000 0.000000 0.000000 -4.345258 -0.559093 0.192128 -0.008967 -0.209287 0.293107 0.000000 0.000000 0.000000 -4.345258 -0.559093 0.192128 1.658161 -5.798933 -3.751168 -3.170118 -5.045395 -77.437434 8.464316 -10.311607 -0.574895 0.000000 0.000000 0.000000 -4.345258 -0.559093 0.192128 2.499586 9.431409 1.398524 0.218818 6.271426 75.853260 11.558567 21.959635 -11.197679 0.000000 0.000000 0.000000 
7.352204 94.730453 8.147385 0.000000 0.000000 0.000000 -4.294748 4.220587 -1.812772 -2.231626 10.309348 7.040465 21.757136 -4.804931 0.554096 -15.885019 1.750314 -2.969492 0.000000 0.000000 0.000000 -4.294748 4.220587 -1.812772 -12.848310 -3.321161 -7.123221 29.426552 2.663987 1.233309 -2.660564 1.404646 7.697682 0.000000 0.000000 0.000000 -4.294748 4.220587 -1.812772 0.000000 0.000000 0.000000 10.218382 -0.383663 -0.132363 3.484050 -0.279404 2.647041 0.000000 0.000000 0.000000 -4.372175 -0.696440 0.341117 -0.005874 -0.184217 0.368817 0.000000 0.000000 0.000000 -4.372175 -0.696440 0.341117 1.645806 -5.527623 -3.774333 -3.829043 -5.831035 -77.327939 9.442140 -9.998267 -1.054668 0.000000 0.000000 0.000000 -4.372175 -0.696440 0.341117 2.525985 9.043227 1.344143 0.125182 6.279330 75.671516 11.103651 21.921299 -10.234562 0.000000 0.000000 0.000000 
7.890711 94.396721 8.820786 0.000000 0.000000 0.000000 -4.214956 4.535477 -2.211708 -2.962589 10.226829 7.362088 24.224751 -5.204678 0.503649 -17.787264 1.782906 -2.438713 0.000000 0.000000 0.000000 -4.214956 4.535477 -2.211708 -20.088787 -2.491764 -8.268846 36.283368 2.324156 1.443162 6.857177 2.959193 9.324199 0.000000 0.000000 0.000000 -4.214956 4.535477 -2.211708 -0.000001 0.000000 0.000000 10.831832 -0.584260 -0.017438 3.173807 -0.574945 2.915072 0.000000 0.000000 0.000000 -4.338508 -0.964413 0.706804 0.047807 -0.167651 0.393551 0.000000 0.000000 0.000000 -4.338508 -0.964413 0.706804 1.626353 -5.172919 -3.995218 -4.467945 -6.590499 -77.302797 10.305278 -9.793784 -1.450630 0.000000 0.000000 0.000000 -4.338508 -0.964413 0.706804 2.566008 8.934488 0.963100 0.094323 6.009413 75.611089 10.804907 21.641903 -9.051382 0.000000 0.000000 0.000000 
